ffmpeg started on 2016-12-09 at 21:24:20
Report written to "Output/x264/results/ffmpeg/sintelplacebo10000k.log"
Command line:
Tools/ffmpeg/ffmpeg -benchmark -y -i Input/y4m/sintel.y4m -c:v libx264 -preset placebo -b:v 10000k -an Output/x264/encoded/sintelplacebo10000k.mkv
ffmpeg version N-82227-gdb23fde Copyright (c) 2000-2016 the FFmpeg developers
  built with gcc 5.4.0 (Ubuntu 5.4.0-6ubuntu1~16.04.2) 20160609
  configuration: --prefix=/home/jaroslav/ffmpeg_build --pkg-config-flags=--static --extra-cflags=-I/home/jaroslav/ffmpeg_build/include --extra-ldflags=-L/home/jaroslav/ffmpeg_build/lib --bindir=/home/jaroslav/bin --enable-gpl --enable-libass --enable-libfdk-aac --enable-libfreetype --enable-libmp3lame --enable-libopus --enable-libtheora --enable-libvorbis --enable-libvpx --enable-libx264 --enable-libx265 --enable-nvenc --enable-libmfx --enable-libxvid --enable-libgsm --enable-libopencore-amrnb --enable-version3 --enable-nonfree
  libavutil      55. 35.100 / 55. 35.100
  libavcodec     57. 66.101 / 57. 66.101
  libavformat    57. 57.100 / 57. 57.100
  libavdevice    57.  2.100 / 57.  2.100
  libavfilter     6. 66.100 /  6. 66.100
  libswscale      4.  3.100 /  4.  3.100
  libswresample   2.  4.100 /  2.  4.100
  libpostproc    54.  2.100 / 54.  2.100
Input #0, yuv4mpegpipe, from 'Input/y4m/sintel.y4m':
  Duration: 00:00:20.83, start: 0.000000, bitrate: 2057307 kb/s
    Stream #0:0: Video: rawvideo (I420 / 0x30323449), yuv420p(progressive), 4096x1744, SAR 1:1 DAR 256:109, 24 fps, 24 tbr, 24 tbn, 24 tbc
[libx264 @ 0x27611c0] using SAR=1/1
[libx264 @ 0x27611c0] DPB size (16 frames, 446464 mbs) > level limit (6 frames, 184320 mbs)
[libx264 @ 0x27611c0] using cpu capabilities: MMX2 SSE2Fast SSSE3 SSE4.2 AVX FMA3 AVX2 LZCNT BMI2
[libx264 @ 0x27611c0] profile High, level 5.2
[libx264 @ 0x27611c0] 264 - core 148 - H.264/MPEG-4 AVC codec - Copyleft 2003-2016 - http://www.videolan.org/x264.html - options: cabac=1 ref=16 deblock=1:0:0 analyse=0x3:0x133 me=tesa subme=11 psy=1 psy_rd=1.00:0.00 mixed_ref=1 me_range=24 chroma_me=1 trellis=2 8x8dct=1 cqm=0 deadzone=21,11 fast_pskip=0 chroma_qp_offset=-2 threads=6 lookahead_threads=1 sliced_threads=0 nr=0 decimate=1 interlaced=0 bluray_compat=0 constrained_intra=0 bframes=16 b_pyramid=2 b_adapt=2 b_bias=0 direct=3 weightb=1 open_gop=0 weightp=2 keyint=250 keyint_min=24 scenecut=40 intra_refresh=0 rc_lookahead=60 rc=abr mbtree=1 bitrate=10000 ratetol=1.0 qcomp=0.60 qpmin=0 qpmax=69 qpstep=4 ip_ratio=1.40 aq=1:1.00
Output #0, matroska, to 'Output/x264/encoded/sintelplacebo10000k.mkv':
  Metadata:
    encoder         : Lavf57.57.100
    Stream #0:0: Video: h264 (libx264) (H264 / 0x34363248), yuv420p, 4096x1744 [SAR 1:1 DAR 256:109], q=-1--1, 10000 kb/s, 24 fps, 1k tbn, 24 tbc
    Metadata:
      encoder         : Lavc57.66.101 libx264
    Side data:
      cpb: bitrate max/min/avg: 0/0/10000000 buffer size: 0 vbv_delay: -1
Stream mapping:
  Stream #0:0 -> #0:0 (rawvideo (native) -> h264 (libx264))
Press [q] to stop, [?] for help
frame=   10 fps=0.0 q=0.0 size=       0kB time=00:00:00.00 bitrate=N/A speed=   0x    frame=   18 fps= 17 q=0.0 size=       0kB time=00:00:00.00 bitrate=N/A speed=   0x    frame=   26 fps= 16 q=0.0 size=       0kB time=00:00:00.00 bitrate=N/A speed=   0x    frame=   34 fps= 16 q=0.0 size=       0kB time=00:00:00.00 bitrate=N/A speed=   0x    frame=   42 fps= 16 q=0.0 size=       0kB time=00:00:00.00 bitrate=N/A speed=   0x    frame=   50 fps= 16 q=0.0 size=       0kB time=00:00:00.00 bitrate=N/A speed=   0x    frame=   54 fps= 15 q=0.0 size=       0kB time=00:00:00.00 bitrate=N/A speed=   0x    frame=   62 fps= 15 q=0.0 size=       0kB time=00:00:00.00 bitrate=N/A speed=   0x    frame=   70 fps= 15 q=0.0 size=       0kB time=00:00:00.00 bitrate=N/A speed=   0x    frame=   73 fps=9.8 q=0.0 size=       0kB time=00:00:00.00 bitrate=N/A speed=   0x    frame=   74 fps=6.9 q=0.0 size=       0kB time=00:00:00.00 bitrate=N/A speed=   0x    frame=   75 fps=6.4 q=0.0 size=       0kB time=00:00:00.00 bitrate=N/A speed=   0x    frame=   83 fps=6.8 q=0.0 size=       0kB time=00:00:00.00 bitrate=N/A speed=   0x    frame=   84 fps=1.4 q=0.0 size=       0kB time=00:00:00.00 bitrate=N/A speed=   0x    frame=   86 fps=1.4 q=0.0 size=       0kB time=00:00:00.00 bitrate=N/A speed=   0x    frame=   88 fps=1.4 q=25.0 size=       1kB time=-00:00:00.08 bitrate=N/A speed=N/A    frame=   90 fps=1.3 q=29.0 size=       1kB time=00:00:00.00 bitrate=5888.0kbits/s speed=1.47e-05x    frame=   92 fps=1.3 q=37.0 size=       1kB time=00:00:00.08 bitrate=  70.1kbits/s speed=0.00119x    frame=   93 fps=1.2 q=41.0 size=       1kB time=00:00:00.12 bitrate=  46.7kbits/s speed=0.00163x    frame=   94 fps=1.2 q=41.0 size=       1kB time=00:00:00.16 bitrate=  35.0kbits/s speed=0.00214x    frame=   95 fps=1.2 q=42.0 size=       1kB time=00:00:00.20 bitrate=  28.2kbits/s speed=0.00263x    frame=   96 fps=1.2 q=42.0 size=       1kB time=00:00:00.25 bitrate=  23.5kbits/s speed=0.00311x    frame=   98 fps=1.2 q=42.0 size=       1kB time=00:00:00.33 bitrate=  17.6kbits/s speed=0.00409x    frame=   99 fps=1.1 q=42.0 size=       1kB time=00:00:00.37 bitrate=  15.7kbits/s speed=0.00422x    frame=  100 fps=1.1 q=41.0 size=       1kB time=00:00:00.41 bitrate=  14.1kbits/s speed=0.00465x    frame=  101 fps=1.1 q=42.0 size=       1kB time=00:00:00.45 bitrate=  12.8kbits/s speed=0.0049x    frame=  102 fps=1.1 q=41.0 size=       1kB time=00:00:00.50 bitrate=  11.8kbits/s speed=0.0053x    frame=  103 fps=1.1 q=41.0 size=       1kB time=00:00:00.54 bitrate=  10.8kbits/s speed=0.00565x    frame=  104 fps=1.1 q=41.0 size=       1kB time=00:00:00.58 bitrate=  10.1kbits/s speed=0.00595x    frame=  105 fps=1.0 q=41.0 size=       1kB time=00:00:00.62 bitrate=   9.4kbits/s speed=0.00594x    frame=  106 fps=1.0 q=41.0 size=       1kB time=00:00:00.66 bitrate=   8.8kbits/s speed=0.00606x    frame=  107 fps=1.0 q=41.0 size=       1kB time=00:00:00.70 bitrate=   8.3kbits/s speed=0.00634x    frame=  108 fps=0.9 q=41.0 size=       1kB time=00:00:00.75 bitrate=   7.8kbits/s speed=0.00658x    frame=  109 fps=0.9 q=41.0 size=       1kB time=00:00:00.79 bitrate=   7.4kbits/s speed=0.00677x    frame=  110 fps=0.9 q=41.0 size=       1kB time=00:00:00.83 bitrate=   7.1kbits/s speed=0.00693x    frame=  111 fps=0.9 q=41.0 size=       1kB time=00:00:00.87 bitrate=   6.7kbits/s speed=0.00695x    frame=  112 fps=0.8 q=41.0 size=       1kB time=00:00:00.91 bitrate=   6.4kbits/s speed=0.00695x    frame=  113 fps=0.8 q=41.0 size=       1kB time=00:00:00.95 bitrate=   6.1kbits/s speed=0.00707x    frame=  114 fps=0.8 q=41.0 size=       1kB time=00:00:01.00 bitrate=   5.9kbits/s speed=0.00727x    frame=  116 fps=0.8 q=41.0 size=       1kB time=00:00:01.08 bitrate=   5.4kbits/s speed=0.00779x    frame=  117 fps=0.8 q=40.0 size=       1kB time=00:00:01.12 bitrate=   5.2kbits/s speed=0.00777x    frame=  118 fps=0.8 q=40.0 size=       1kB time=00:00:01.16 bitrate=   5.0kbits/s speed=0.0077x    frame=  119 fps=0.8 q=40.0 size=       1kB time=00:00:01.20 bitrate=   4.9kbits/s speed=0.00778x    frame=  120 fps=0.8 q=40.0 size=       1kB time=00:00:01.25 bitrate=   4.7kbits/s speed=0.00795x    frame=  121 fps=0.8 q=40.0 size=       1kB time=00:00:01.29 bitrate=   4.6kbits/s speed=0.00805x    frame=  122 fps=0.7 q=40.0 size=       1kB time=00:00:01.33 bitrate=   4.4kbits/s speed=0.00819x    frame=  123 fps=0.7 q=40.0 size=       1kB time=00:00:01.37 bitrate=   4.3kbits/s speed=0.00826x    frame=  124 fps=0.7 q=40.0 size=       1kB time=00:00:01.41 bitrate=   4.2kbits/s speed=0.00823x    frame=  125 fps=0.7 q=40.0 size=       1kB time=00:00:01.45 bitrate=   4.0kbits/s speed=0.00828x    frame=  126 fps=0.7 q=40.0 size=       1kB time=00:00:01.50 bitrate=   3.9kbits/s speed=0.00838x    frame=  127 fps=0.7 q=40.0 size=       1kB time=00:00:01.54 bitrate=   3.8kbits/s speed=0.0085x    frame=  128 fps=0.7 q=40.0 size=       1kB time=00:00:01.58 bitrate=   3.7kbits/s speed=0.00854x    frame=  129 fps=0.7 q=39.0 size=       1kB time=00:00:01.62 bitrate=   3.6kbits/s speed=0.00866x    frame=  130 fps=0.7 q=39.0 size=       1kB time=00:00:01.66 bitrate=   3.5kbits/s speed=0.00866x    frame=  131 fps=0.7 q=39.0 size=       1kB time=00:00:01.70 bitrate=   3.4kbits/s speed=0.00868x    frame=  132 fps=0.7 q=39.0 size=       1kB time=00:00:01.75 bitrate=   3.4kbits/s speed=0.00881x    frame=  133 fps=0.7 q=39.0 size=       1kB time=00:00:01.79 bitrate=   3.3kbits/s speed=0.00887x    frame=  134 fps=0.6 q=39.0 size=       1kB time=00:00:01.83 bitrate=   3.2kbits/s speed=0.0089x    frame=  135 fps=0.6 q=39.0 size=       1kB time=00:00:01.87 bitrate=   3.1kbits/s speed=0.00901x    frame=  136 fps=0.6 q=39.0 size=       1kB time=00:00:01.91 bitrate=   3.1kbits/s speed=0.00901x    frame=  137 fps=0.6 q=39.0 size=       1kB time=00:00:01.95 bitrate=   3.0kbits/s speed=0.00896x    frame=  138 fps=0.6 q=39.0 size=       1kB time=00:00:02.00 bitrate=   2.9kbits/s speed=0.00904x    frame=  139 fps=0.6 q=39.0 size=       1kB time=00:00:02.04 bitrate=   2.9kbits/s speed=0.0091x    frame=  140 fps=0.6 q=39.0 size=       1kB time=00:00:02.08 bitrate=   2.8kbits/s speed=0.00907x    frame=  141 fps=0.6 q=39.0 size=       1kB time=00:00:02.12 bitrate=   2.8kbits/s speed=0.00908x    frame=  142 fps=0.6 q=39.0 size=       1kB time=00:00:02.16 bitrate=   2.7kbits/s speed=0.00912x    frame=  143 fps=0.6 q=39.0 size=       1kB time=00:00:02.20 bitrate=   2.7kbits/s speed=0.00907x    frame=  144 fps=0.6 q=39.0 size=       1kB time=00:00:02.25 bitrate=   2.6kbits/s speed=0.00909x    frame=  145 fps=0.6 q=39.0 size=       1kB time=00:00:02.29 bitrate=   2.6kbits/s speed=0.00918x    frame=  146 fps=0.6 q=39.0 size=       1kB time=00:00:02.33 bitrate=   2.5kbits/s speed=0.00916x    frame=  147 fps=0.6 q=39.0 size=       1kB time=00:00:02.37 bitrate=   2.5kbits/s speed=0.0092x    frame=  148 fps=0.6 q=39.0 size=       1kB time=00:00:02.41 bitrate=   2.4kbits/s speed=0.0092x    frame=  149 fps=0.6 q=38.0 size=       1kB time=00:00:02.45 bitrate=   2.4kbits/s speed=0.00918x    frame=  150 fps=0.6 q=38.0 size=       1kB time=00:00:02.50 bitrate=   2.4kbits/s speed=0.00919x    frame=  151 fps=0.5 q=38.0 size=       1kB time=00:00:02.54 bitrate=   2.3kbits/s speed=0.00926x    frame=  152 fps=0.5 q=38.0 size=       1kB time=00:00:02.58 bitrate=   2.3kbits/s speed=0.00928x    frame=  153 fps=0.5 q=38.0 size=       1kB time=00:00:02.62 bitrate=   2.2kbits/s speed=0.00933x    frame=  154 fps=0.5 q=38.0 size=       1kB time=00:00:02.66 bitrate=   2.2kbits/s speed=0.00925x    frame=  155 fps=0.5 q=38.0 size=       1kB time=00:00:02.70 bitrate=   2.2kbits/s speed=0.00934x    frame=  156 fps=0.5 q=38.0 size=       1kB time=00:00:02.75 bitrate=   2.1kbits/s speed=0.00936x    frame=  157 fps=0.5 q=38.0 size=       1kB time=00:00:02.79 bitrate=   2.1kbits/s speed=0.00944x    frame=  158 fps=0.5 q=38.0 size=       1kB time=00:00:02.83 bitrate=   2.1kbits/s speed=0.00949x    frame=  159 fps=0.5 q=38.0 size=       1kB time=00:00:02.87 bitrate=   2.0kbits/s speed=0.00954x    frame=  160 fps=0.5 q=38.0 size=       1kB time=00:00:02.91 bitrate=   2.0kbits/s speed=0.00941x    frame=  161 fps=0.5 q=38.0 size=       1kB time=00:00:02.95 bitrate=   2.0kbits/s speed=0.00948x    frame=  162 fps=0.5 q=38.0 size=       1kB time=00:00:03.00 bitrate=   2.0kbits/s speed=0.00954x    frame=  163 fps=0.5 q=38.0 size=       1kB time=00:00:03.04 bitrate=   1.9kbits/s speed=0.0096x    frame=  164 fps=0.5 q=38.0 size=       1kB time=00:00:03.08 bitrate=   1.9kbits/s speed=0.00968x    frame=  165 fps=0.5 q=37.0 size=       1kB time=00:00:03.12 bitrate=   1.9kbits/s speed=0.0097x    frame=  166 fps=0.5 q=37.0 size=       1kB time=00:00:03.16 bitrate=   1.9kbits/s speed=0.00962x    frame=  167 fps=0.5 q=37.0 size=       1kB time=00:00:03.20 bitrate=   1.8kbits/s speed=0.00968x    frame=  168 fps=0.5 q=37.0 size=       1kB time=00:00:03.25 bitrate=   1.8kbits/s speed=0.00972x    frame=  169 fps=0.5 q=37.0 size=       1kB time=00:00:03.29 bitrate=   1.8kbits/s speed=0.00978x    frame=  170 fps=0.5 q=37.0 size=       1kB time=00:00:03.33 bitrate=   1.8kbits/s speed=0.0098x    frame=  171 fps=0.5 q=37.0 size=       1kB time=00:00:03.37 bitrate=   1.7kbits/s speed=0.00982x    frame=  172 fps=0.5 q=37.0 size=       1kB time=00:00:03.41 bitrate=   1.7kbits/s speed=0.00976x    frame=  173 fps=0.5 q=37.0 size=       1kB time=00:00:03.45 bitrate=   1.7kbits/s speed=0.0098x    frame=  174 fps=0.5 q=37.0 size=       1kB time=00:00:03.50 bitrate=   1.7kbits/s speed=0.00987x    frame=  175 fps=0.5 q=37.0 size=       1kB time=00:00:03.54 bitrate=   1.7kbits/s speed=0.00989x    frame=  176 fps=0.5 q=37.0 size=       1kB time=00:00:03.58 bitrate=   1.6kbits/s speed=0.00988x    frame=  177 fps=0.5 q=37.0 size=       1kB time=00:00:03.62 bitrate=   1.6kbits/s speed=0.00994x    frame=  178 fps=0.5 q=37.0 size=       1kB time=00:00:03.66 bitrate=   1.6kbits/s speed=0.00985x    frame=  179 fps=0.5 q=37.0 size=       1kB time=00:00:03.70 bitrate=   1.6kbits/s speed=0.00989x    frame=  180 fps=0.5 q=37.0 size=       1kB time=00:00:03.75 bitrate=   1.6kbits/s speed=0.00993x    frame=  181 fps=0.5 q=37.0 size=       1kB time=00:00:03.79 bitrate=   1.6kbits/s speed=0.00996x    frame=  182 fps=0.5 q=37.0 size=       1kB time=00:00:03.83 bitrate=   1.5kbits/s speed=0.00995x    frame=  183 fps=0.5 q=37.0 size=       1kB time=00:00:03.87 bitrate=   1.5kbits/s speed=0.00998x    frame=  184 fps=0.5 q=37.0 size=       1kB time=00:00:03.91 bitrate=   1.5kbits/s speed=0.00993x    frame=  185 fps=0.5 q=37.0 size=       1kB time=00:00:03.95 bitrate=   1.5kbits/s speed=0.00998x    frame=  186 fps=0.5 q=37.0 size=    5136kB time=00:00:04.00 bitrate=10515.0kbits/s speed=0.00999x    frame=  187 fps=0.5 q=36.0 size=    5136kB time=00:00:04.04 bitrate=10405.8kbits/s speed=0.01x    frame=  188 fps=0.5 q=37.0 size=    5136kB time=00:00:04.08 bitrate=10301.3kbits/s speed=0.0101x    frame=  189 fps=0.5 q=36.0 size=    5136kB time=00:00:04.12 bitrate=10196.5kbits/s speed=0.01x    frame=  190 fps=0.5 q=36.0 size=    5136kB time=00:00:04.16 bitrate=10093.7kbits/s speed=0.0101x    frame=  191 fps=0.5 q=36.0 size=    5136kB time=00:00:04.20 bitrate=9995.4kbits/s speed=0.0101x    frame=  192 fps=0.5 q=36.0 size=    5136kB time=00:00:04.25 bitrate=9896.6kbits/s speed=0.0101x    frame=  193 fps=0.5 q=36.0 size=    5136kB time=00:00:04.29 bitrate=9799.8kbits/s speed=0.0102x    frame=  194 fps=0.5 q=36.0 size=    5136kB time=00:00:04.33 bitrate=9707.1kbits/s speed=0.0102x    frame=  195 fps=0.5 q=36.0 size=    5136kB time=00:00:04.37 bitrate=9614.0kbits/s speed=0.0101x    frame=  196 fps=0.5 q=36.0 size=    5136kB time=00:00:04.41 bitrate=9522.6kbits/s speed=0.0102x    frame=  197 fps=0.5 q=36.0 size=    5136kB time=00:00:04.45 bitrate=9435.0kbits/s speed=0.0102x    frame=  198 fps=0.5 q=36.0 size=    5136kB time=00:00:04.50 bitrate=9347.0kbits/s speed=0.0102x    frame=  199 fps=0.5 q=36.0 size=    5136kB time=00:00:04.54 bitrate=9260.5kbits/s speed=0.0103x    frame=  200 fps=0.4 q=36.0 size=    5136kB time=00:00:04.58 bitrate=9177.7kbits/s speed=0.0103x    frame=  201 fps=0.4 q=36.0 size=    5136kB time=00:00:04.62 bitrate=9094.4kbits/s speed=0.0103x    frame=  202 fps=0.4 q=36.0 size=    5136kB time=00:00:04.66 bitrate=9012.6kbits/s speed=0.0103x    frame=  203 fps=0.4 q=36.0 size=    5136kB time=00:00:04.70 bitrate=8934.1kbits/s speed=0.0103x    frame=  204 fps=0.4 q=36.0 size=    5136kB time=00:00:04.75 bitrate=8855.1kbits/s speed=0.0102x    frame=  205 fps=0.4 q=36.0 size=    5136kB time=00:00:04.79 bitrate=8777.5kbits/s speed=0.0102x    frame=  206 fps=0.4 q=36.0 size=    5136kB time=00:00:04.83 bitrate=8703.1kbits/s speed=0.0102x    frame=  207 fps=0.4 q=36.0 size=    5136kB time=00:00:04.87 bitrate=8628.1kbits/s speed=0.0103x    frame=  208 fps=0.4 q=36.0 size=    5136kB time=00:00:04.91 bitrate=8554.4kbits/s speed=0.0103x    frame=  209 fps=0.4 q=36.0 size=    5136kB time=00:00:04.95 bitrate=8483.7kbits/s speed=0.0104x    frame=  210 fps=0.4 q=36.0 size=    5136kB time=00:00:05.00 bitrate=8412.4kbits/s speed=0.0104x    frame=  211 fps=0.4 q=36.0 size=    5136kB time=00:00:05.04 bitrate=8342.4kbits/s speed=0.0102x    frame=  212 fps=0.4 q=36.0 size=    5136kB time=00:00:05.08 bitrate=8275.1kbits/s speed=0.0103x    frame=  213 fps=0.4 q=36.0 size=    5136kB time=00:00:05.12 bitrate=8207.3kbits/s speed=0.0103x    frame=  214 fps=0.4 q=36.0 size=    5136kB time=00:00:05.16 bitrate=8140.6kbits/s speed=0.0103x    frame=  215 fps=0.4 q=36.0 size=    5136kB time=00:00:05.20 bitrate=8076.5kbits/s speed=0.0103x    frame=  216 fps=0.4 q=36.0 size=    5136kB time=00:00:05.25 bitrate=8011.9kbits/s speed=0.0103x    frame=  217 fps=0.4 q=36.0 size=    5136kB time=00:00:05.29 bitrate=7948.4kbits/s speed=0.0103x    frame=  218 fps=0.4 q=36.0 size=    5136kB time=00:00:05.33 bitrate=7887.3kbits/s speed=0.0103x    frame=  219 fps=0.4 q=36.0 size=    5136kB time=00:00:05.37 bitrate=7825.6kbits/s speed=0.0103x    frame=  220 fps=0.4 q=36.0 size=    5136kB time=00:00:05.41 bitrate=7765.0kbits/s speed=0.0103x    frame=  221 fps=0.4 q=36.0 size=    5136kB time=00:00:05.45 bitrate=7706.7kbits/s speed=0.0103x    frame=  222 fps=0.4 q=36.0 size=    5136kB time=00:00:05.50 bitrate=7647.8kbits/s speed=0.0103x    frame=  223 fps=0.4 q=36.0 size=    5136kB time=00:00:05.54 bitrate=7589.9kbits/s speed=0.0103x    frame=  224 fps=0.4 q=36.0 size=    5136kB time=00:00:05.58 bitrate=7534.1kbits/s speed=0.0103x    frame=  225 fps=0.4 q=36.0 size=    5136kB time=00:00:05.62 bitrate=7477.9kbits/s speed=0.0103x    frame=  226 fps=0.4 q=36.0 size=    5136kB time=00:00:05.66 bitrate=7422.5kbits/s speed=0.0103x    frame=  227 fps=0.4 q=36.0 size=    5136kB time=00:00:05.70 bitrate=7369.2kbits/s speed=0.0104x    frame=  228 fps=0.4 q=36.0 size=    5136kB time=00:00:05.75 bitrate=7315.4kbits/s speed=0.0104x    frame=  229 fps=0.4 q=36.0 size=    5136kB time=00:00:05.79 bitrate=7262.3kbits/s speed=0.0104x    frame=  230 fps=0.4 q=36.0 size=    5136kB time=00:00:05.83 bitrate=7211.3kbits/s speed=0.0103x    frame=  231 fps=0.4 q=36.0 size=    5136kB time=00:00:05.87 bitrate=7159.7kbits/s speed=0.0103x    frame=  232 fps=0.4 q=36.0 size=    5136kB time=00:00:05.91 bitrate=7108.9kbits/s speed=0.0104x    frame=  233 fps=0.4 q=36.0 size=    5136kB time=00:00:05.95 bitrate=7060.0kbits/s speed=0.0104x    frame=  234 fps=0.4 q=36.0 size=    5136kB time=00:00:06.00 bitrate=7010.6kbits/s speed=0.0104x    frame=  235 fps=0.4 q=35.0 size=    5136kB time=00:00:06.04 bitrate=6961.9kbits/s speed=0.0104x    frame=  236 fps=0.4 q=36.0 size=    5136kB time=00:00:06.08 bitrate=6915.0kbits/s speed=0.0104x    frame=  237 fps=0.4 q=36.0 size=    5136kB time=00:00:06.12 bitrate=6867.6kbits/s speed=0.0104x    frame=  238 fps=0.4 q=36.0 size=    5136kB time=00:00:06.16 bitrate=6820.8kbits/s speed=0.0104x    frame=  239 fps=0.4 q=35.0 size=    5136kB time=00:00:06.20 bitrate=6775.8kbits/s speed=0.0105x    frame=  240 fps=0.4 q=35.0 size=    5136kB time=00:00:06.25 bitrate=6730.2kbits/s speed=0.0105x    frame=  241 fps=0.4 q=35.0 size=    5136kB time=00:00:06.29 bitrate=6685.3kbits/s speed=0.0105x    frame=  242 fps=0.4 q=35.0 size=    5136kB time=00:00:06.33 bitrate=6642.0kbits/s speed=0.0106x    frame=  243 fps=0.4 q=35.0 size=    5136kB time=00:00:06.37 bitrate=6598.3kbits/s speed=0.0106x    frame=  245 fps=0.4 q=35.0 size=    5136kB time=00:00:06.45 bitrate=6513.5kbits/s speed=0.0105x    frame=  246 fps=0.4 q=35.0 size=    5136kB time=00:00:06.50 bitrate=6471.4kbits/s speed=0.0105x    frame=  247 fps=0.4 q=35.0 size=    5136kB time=00:00:06.54 bitrate=6429.9kbits/s speed=0.0105x    frame=  248 fps=0.4 q=35.0 size=    5136kB time=00:00:06.58 bitrate=6389.8kbits/s speed=0.0106x    frame=  249 fps=0.4 q=35.0 size=    5136kB time=00:00:06.62 bitrate=6349.3kbits/s speed=0.0106x    frame=  250 fps=0.4 q=35.0 size=    5136kB time=00:00:06.66 bitrate=6309.3kbits/s speed=0.0106x    frame=  251 fps=0.4 q=35.0 size=    5136kB time=00:00:06.70 bitrate=6270.8kbits/s speed=0.0105x    frame=  252 fps=0.4 q=35.0 size=    5136kB time=00:00:06.75 bitrate=6231.8kbits/s speed=0.0106x    frame=  253 fps=0.4 q=35.0 size=    5136kB time=00:00:06.79 bitrate=6193.2kbits/s speed=0.0106x    frame=  254 fps=0.4 q=35.0 size=    5136kB time=00:00:06.83 bitrate=6156.1kbits/s speed=0.0106x    frame=  255 fps=0.4 q=35.0 size=    5136kB time=00:00:06.87 bitrate=6118.5kbits/s speed=0.0106x    frame=  256 fps=0.4 q=35.0 size=    5136kB time=00:00:06.91 bitrate=6081.3kbits/s speed=0.0106x    frame=  257 fps=0.4 q=35.0 size=    5136kB time=00:00:06.95 bitrate=6045.5kbits/s speed=0.0105x    frame=  258 fps=0.4 q=35.0 size=    5136kB time=00:00:07.00 bitrate=6009.2kbits/s speed=0.0106x    frame=  259 fps=0.4 q=35.0 size=    5136kB time=00:00:07.04 bitrate=5973.4kbits/s speed=0.0106x    frame=  260 fps=0.4 q=35.0 size=    5136kB time=00:00:07.08 bitrate=5938.8kbits/s speed=0.0106x    frame=  261 fps=0.4 q=35.0 size=    5136kB time=00:00:07.12 bitrate=5903.8kbits/s speed=0.0105x    frame=  262 fps=0.4 q=35.0 size=    5136kB time=00:00:07.16 bitrate=5869.2kbits/s speed=0.0106x    frame=  263 fps=0.4 q=35.0 size=    5136kB time=00:00:07.20 bitrate=5835.9kbits/s speed=0.0106x    frame=  264 fps=0.4 q=35.0 size=    5136kB time=00:00:07.25 bitrate=5802.0kbits/s speed=0.0106x    frame=  265 fps=0.4 q=35.0 size=    5136kB time=00:00:07.29 bitrate=5768.6kbits/s speed=0.0106x    frame=  266 fps=0.4 q=35.0 size=    5136kB time=00:00:07.33 bitrate=5736.4kbits/s speed=0.0106x    frame=  267 fps=0.4 q=35.0 size=    5136kB time=00:00:07.37 bitrate=5703.7kbits/s speed=0.0106x    frame=  268 fps=0.4 q=35.0 size=    5136kB time=00:00:07.41 bitrate=5671.4kbits/s speed=0.0106x    frame=  269 fps=0.4 q=35.0 size=    5136kB time=00:00:07.45 bitrate=5640.3kbits/s speed=0.0106x    frame=  270 fps=0.4 q=35.0 size=    5136kB time=00:00:07.50 bitrate=5608.7kbits/s speed=0.0106x    frame=  271 fps=0.4 q=35.0 size=    5136kB time=00:00:07.54 bitrate=5577.4kbits/s speed=0.0106x    frame=  272 fps=0.4 q=35.0 size=    5136kB time=00:00:07.58 bitrate=5547.3kbits/s speed=0.0105x    frame=  273 fps=0.4 q=35.0 size=    5136kB time=00:00:07.62 bitrate=5516.7kbits/s speed=0.0105x    frame=  274 fps=0.4 q=35.0 size=    5136kB time=00:00:07.66 bitrate=5486.5kbits/s speed=0.0106x    frame=  276 fps=0.4 q=34.0 size=    5136kB time=00:00:07.75 bitrate=5427.8kbits/s speed=0.0106x    frame=  277 fps=0.4 q=34.0 size=    5136kB time=00:00:07.79 bitrate=5398.5kbits/s speed=0.0107x    frame=  278 fps=0.4 q=34.0 size=    5136kB time=00:00:07.83 bitrate=5370.3kbits/s speed=0.0107x    frame=  279 fps=0.4 q=34.0 size=    5136kB time=00:00:07.87 bitrate=5341.6kbits/s speed=0.0106x    frame=  280 fps=0.4 q=34.0 size=    5136kB time=00:00:07.91 bitrate=5313.3kbits/s speed=0.0106x    frame=  281 fps=0.4 q=34.0 size=    5136kB time=00:00:07.95 bitrate=5285.9kbits/s speed=0.0107x    frame=  282 fps=0.4 q=34.0 size=    5136kB time=00:00:08.00 bitrate=5258.2kbits/s speed=0.0107x    frame=  283 fps=0.4 q=34.0 size=    5136kB time=00:00:08.04 bitrate=5230.7kbits/s speed=0.0107x    frame=  284 fps=0.4 q=34.0 size=    5136kB time=00:00:08.08 bitrate=5204.2kbits/s speed=0.0107x    frame=  285 fps=0.4 q=34.0 size=    5136kB time=00:00:08.12 bitrate=5177.3kbits/s speed=0.0106x    frame=  286 fps=0.4 q=34.0 size=    5136kB time=00:00:08.16 bitrate=5150.7kbits/s speed=0.0106x    frame=  287 fps=0.4 q=34.0 size=    5136kB time=00:00:08.20 bitrate=5124.9kbits/s speed=0.0107x    frame=  288 fps=0.4 q=34.0 size=    5136kB time=00:00:08.25 bitrate=5098.9kbits/s speed=0.0106x    frame=  289 fps=0.4 q=34.0 size=    5136kB time=00:00:08.29 bitrate=5073.0kbits/s speed=0.0107x    frame=  290 fps=0.4 q=34.0 size=    5136kB time=00:00:08.33 bitrate=5048.1kbits/s speed=0.0107x    frame=  291 fps=0.4 q=34.0 size=    5136kB time=00:00:08.37 bitrate=5022.8kbits/s speed=0.0106x    frame=  292 fps=0.4 q=34.0 size=    5136kB time=00:00:08.41 bitrate=4997.7kbits/s speed=0.0106x    frame=  293 fps=0.4 q=34.0 size=    5136kB time=00:00:08.45 bitrate=4973.5kbits/s speed=0.0106x    frame=  294 fps=0.4 q=34.0 size=    5136kB time=00:00:08.50 bitrate=4948.9kbits/s speed=0.0107x    frame=  295 fps=0.4 q=34.0 size=    5136kB time=00:00:08.54 bitrate=4924.6kbits/s speed=0.0107x    frame=  296 fps=0.4 q=34.0 size=    5136kB time=00:00:08.58 bitrate=4901.1kbits/s speed=0.0107x    frame=  297 fps=0.4 q=34.0 size=    5136kB time=00:00:08.62 bitrate=4877.2kbits/s speed=0.0106x    frame=  298 fps=0.4 q=34.0 size=    5136kB time=00:00:08.66 bitrate=4853.6kbits/s speed=0.0106x    frame=  299 fps=0.4 q=34.0 size=    5136kB time=00:00:08.70 bitrate=4830.7kbits/s speed=0.0106x    frame=  300 fps=0.4 q=34.0 size=    5136kB time=00:00:08.75 bitrate=4807.5kbits/s speed=0.0106x    frame=  301 fps=0.4 q=34.0 size=    5136kB time=00:00:08.79 bitrate=4784.6kbits/s speed=0.0107x    frame=  302 fps=0.4 q=34.0 size=    5136kB time=00:00:08.83 bitrate=4762.4kbits/s speed=0.0107x    frame=  303 fps=0.4 q=34.0 size=    5136kB time=00:00:08.87 bitrate=4739.8kbits/s speed=0.0107x    frame=  304 fps=0.4 q=34.0 size=    5136kB time=00:00:08.91 bitrate=4717.5kbits/s speed=0.0107x    frame=  305 fps=0.4 q=34.0 size=   10263kB time=00:00:08.95 bitrate=9384.4kbits/s speed=0.0107x    frame=  306 fps=0.4 q=34.0 size=   10263kB time=00:00:09.00 bitrate=9340.6kbits/s speed=0.0107x    frame=  307 fps=0.4 q=34.0 size=   10263kB time=00:00:09.04 bitrate=9297.3kbits/s speed=0.0107x    frame=  308 fps=0.4 q=34.0 size=   10263kB time=00:00:09.08 bitrate=9255.3kbits/s speed=0.0107x    frame=  309 fps=0.4 q=34.0 size=   10263kB time=00:00:09.12 bitrate=9212.7kbits/s speed=0.0107x    frame=  310 fps=0.4 q=34.0 size=   10263kB time=00:00:09.16 bitrate=9170.5kbits/s speed=0.0107x    frame=  311 fps=0.4 q=34.0 size=   10263kB time=00:00:09.20 bitrate=9129.7kbits/s speed=0.0107x    frame=  312 fps=0.4 q=34.0 size=   10263kB time=00:00:09.25 bitrate=9088.2kbits/s speed=0.0108x    frame=  314 fps=0.4 q=34.0 size=   10263kB time=00:00:09.33 bitrate=9007.4kbits/s speed=0.0107x    frame=  315 fps=0.4 q=34.0 size=   10263kB time=00:00:09.37 bitrate=8967.1kbits/s speed=0.0107x    frame=  316 fps=0.4 q=34.0 size=   10263kB time=00:00:09.41 bitrate=8927.1kbits/s speed=0.0108x    frame=  319 fps=0.4 q=34.0 size=   10263kB time=00:00:09.54 bitrate=8810.1kbits/s speed=0.0108x    frame=  320 fps=0.4 q=34.0 size=   10263kB time=00:00:09.58 bitrate=8772.4kbits/s speed=0.0109x    frame=  321 fps=0.4 q=34.0 size=   10263kB time=00:00:09.62 bitrate=8734.2kbits/s speed=0.0108x    frame=  322 fps=0.4 q=34.0 size=   10263kB time=00:00:09.66 bitrate=8696.2kbits/s speed=0.0108x    frame=  323 fps=0.4 q=34.0 size=   10263kB time=00:00:09.70 bitrate=8659.5kbits/s speed=0.0108x    frame=  324 fps=0.4 q=34.0 size=   10263kB time=00:00:09.75 bitrate=8622.2kbits/s speed=0.0109x    frame=  325 fps=0.4 q=34.0 size=   10263kB time=00:00:09.79 bitrate=8585.2kbits/s speed=0.0109x    frame=  326 fps=0.4 q=34.0 size=   10263kB time=00:00:09.83 bitrate=8549.4kbits/s speed=0.0109x    frame=  327 fps=0.4 q=34.0 size=   10263kB time=00:00:09.87 bitrate=8513.1kbits/s speed=0.0109x    frame=  328 fps=0.4 q=33.0 size=   10263kB time=00:00:09.91 bitrate=8477.0kbits/s speed=0.0108x    frame=  329 fps=0.4 q=33.0 size=   10263kB time=00:00:09.95 bitrate=8442.1kbits/s speed=0.0108x    frame=  330 fps=0.4 q=33.0 size=   10263kB time=00:00:10.00 bitrate=8406.7kbits/s speed=0.0109x    frame=  331 fps=0.4 q=33.0 size=   10263kB time=00:00:10.04 bitrate=8371.5kbits/s speed=0.0109x    frame=  332 fps=0.4 q=33.0 size=   10263kB time=00:00:10.08 bitrate=8337.5kbits/s speed=0.0109x    frame=  333 fps=0.4 q=31.0 size=   10263kB time=00:00:10.12 bitrate=8302.9kbits/s speed=0.0109x    frame=  334 fps=0.4 q=34.0 size=   10263kB time=00:00:10.16 bitrate=8268.6kbits/s speed=0.0109x    frame=  335 fps=0.4 q=34.0 size=   10263kB time=00:00:10.20 bitrate=8235.4kbits/s speed=0.0109x    frame=  336 fps=0.4 q=33.0 size=   10263kB time=00:00:10.25 bitrate=8201.6kbits/s speed=0.0109x    frame=  337 fps=0.4 q=33.0 size=   10263kB time=00:00:10.29 bitrate=8168.2kbits/s speed=0.0109x    frame=  338 fps=0.4 q=33.0 size=   11545kB time=00:00:10.33 bitrate=9152.2kbits/s speed=0.011x    frame=  343 fps=0.4 q=33.0 size=   11545kB time=00:00:10.54 bitrate=8970.8kbits/s speed=0.0112x    frame=  344 fps=0.4 q=33.0 size=   11545kB time=00:00:10.58 bitrate=8936.0kbits/s speed=0.0111x    frame=  346 fps=0.4 q=33.0 size=   11545kB time=00:00:10.66 bitrate=8865.6kbits/s speed=0.0112x    frame=  347 fps=0.4 q=33.0 size=   11545kB time=00:00:10.70 bitrate=8831.7kbits/s speed=0.0112x    frame=  348 fps=0.4 q=31.0 size=   11545kB time=00:00:10.75 bitrate=8797.2kbits/s speed=0.0113x    frame=  349 fps=0.4 q=33.0 size=   11545kB time=00:00:10.79 bitrate=8763.0kbits/s speed=0.0113x    frame=  350 fps=0.4 q=33.0 size=   11545kB time=00:00:10.83 bitrate=8729.8kbits/s speed=0.0114x    frame=  351 fps=0.4 q=33.0 size=   11545kB time=00:00:10.87 bitrate=8696.1kbits/s speed=0.0114x    frame=  353 fps=0.4 q=33.0 size=   11545kB time=00:00:10.95 bitrate=8630.2kbits/s speed=0.0114x    frame=  355 fps=0.4 q=33.0 size=   11545kB time=00:00:11.04 bitrate=8564.6kbits/s speed=0.0114x    frame=  357 fps=0.4 q=33.0 size=   11545kB time=00:00:11.12 bitrate=8500.7kbits/s speed=0.0115x    frame=  358 fps=0.4 q=33.0 size=   11545kB time=00:00:11.16 bitrate=8468.7kbits/s speed=0.0115x    frame=  359 fps=0.4 q=33.0 size=   11545kB time=00:00:11.20 bitrate=8437.7kbits/s speed=0.0115x    frame=  360 fps=0.4 q=33.0 size=   11545kB time=00:00:11.25 bitrate=8406.2kbits/s speed=0.0115x    frame=  361 fps=0.4 q=33.0 size=   11545kB time=00:00:11.29 bitrate=8375.0kbits/s speed=0.0115x    frame=  362 fps=0.4 q=33.0 size=   11545kB time=00:00:11.33 bitrate=8344.7kbits/s speed=0.0115x    frame=  363 fps=0.4 q=33.0 size=   11545kB time=00:00:11.37 bitrate=8313.9kbits/s speed=0.0116x    frame=  365 fps=0.4 q=33.0 size=   11545kB time=00:00:11.45 bitrate=8253.7kbits/s speed=0.0115x    frame=  366 fps=0.4 q=33.0 size=   11545kB time=00:00:11.50 bitrate=8223.5kbits/s speed=0.0116x    frame=  367 fps=0.4 q=33.0 size=   11545kB time=00:00:11.54 bitrate=8193.6kbits/s speed=0.0116x    frame=  369 fps=0.4 q=33.0 size=   11545kB time=00:00:11.62 bitrate=8135.1kbits/s speed=0.0116x    frame=  370 fps=0.4 q=33.0 size=   11545kB time=00:00:11.66 bitrate=8105.8kbits/s speed=0.0116x    frame=  371 fps=0.4 q=33.0 size=   11545kB time=00:00:11.70 bitrate=8077.4kbits/s speed=0.0117x    frame=  372 fps=0.4 q=33.0 size=   11545kB time=00:00:11.75 bitrate=8048.6kbits/s speed=0.0116x    frame=  373 fps=0.4 q=33.0 size=   11545kB time=00:00:11.79 bitrate=8019.9kbits/s speed=0.0116x    frame=  374 fps=0.4 q=32.0 size=   11545kB time=00:00:11.83 bitrate=7992.1kbits/s speed=0.0117x    frame=  376 fps=0.4 q=33.0 size=   11545kB time=00:00:11.91 bitrate=7935.8kbits/s speed=0.0117x    frame=  377 fps=0.4 q=33.0 size=   11545kB time=00:00:11.95 bitrate=7908.6kbits/s speed=0.0117x    frame=  378 fps=0.4 q=32.0 size=   11545kB time=00:00:12.00 bitrate=7880.9kbits/s speed=0.0117x    frame=  380 fps=0.4 q=32.0 size=   11545kB time=00:00:12.08 bitrate=7826.8kbits/s speed=0.0117x    frame=  381 fps=0.4 q=32.0 size=   11545kB time=00:00:12.12 bitrate=7799.7kbits/s speed=0.0117x    frame=  382 fps=0.4 q=32.0 size=   11545kB time=00:00:12.16 bitrate=7772.7kbits/s speed=0.0118x    frame=  385 fps=0.4 q=32.0 size=   11545kB time=00:00:12.29 bitrate=7693.7kbits/s speed=0.0118x    frame=  386 fps=0.4 q=32.0 size=   11545kB time=00:00:12.33 bitrate=7668.1kbits/s speed=0.0119x    frame=  387 fps=0.4 q=32.0 size=   11545kB time=00:00:12.37 bitrate=7642.1kbits/s speed=0.0119x    frame=  388 fps=0.4 q=32.0 size=   11545kB time=00:00:12.41 bitrate=7616.3kbits/s speed=0.0118x    frame=  389 fps=0.4 q=32.0 size=   11545kB time=00:00:12.45 bitrate=7591.2kbits/s speed=0.0119x    frame=  390 fps=0.4 q=32.0 size=   11545kB time=00:00:12.50 bitrate=7565.7kbits/s speed=0.0119x    frame=  394 fps=0.4 q=32.0 size=   11545kB time=00:00:12.66 bitrate=7466.0kbits/s speed=0.0119x    frame=  395 fps=0.4 q=32.0 size=   11545kB time=00:00:12.70 bitrate=7441.9kbits/s speed=0.0119x    frame=  396 fps=0.4 q=32.0 size=   11545kB time=00:00:12.75 bitrate=7417.4kbits/s speed=0.012x    frame=  400 fps=0.4 q=31.0 size=   11545kB time=00:00:12.91 bitrate=7321.5kbits/s speed=0.012x    frame=  401 fps=0.4 q=32.0 size=   11545kB time=00:00:12.95 bitrate=7298.3kbits/s speed=0.012x    frame=  403 fps=0.4 q=31.0 size=   11545kB time=00:00:13.04 bitrate=7251.3kbits/s speed=0.0121x    frame=  406 fps=0.4 q=31.0 size=   11545kB time=00:00:13.16 bitrate=7182.5kbits/s speed=0.0121x    frame=  407 fps=0.4 q=31.0 size=   11545kB time=00:00:13.20 bitrate=7160.2kbits/s speed=0.0121x    frame=  409 fps=0.4 q=31.0 size=   11545kB time=00:00:13.29 bitrate=7114.9kbits/s speed=0.0122x    frame=  411 fps=0.4 q=31.0 size=   11545kB time=00:00:13.37 bitrate=7070.8kbits/s speed=0.0122x    frame=  412 fps=0.4 q=31.0 size=   11545kB time=00:00:13.41 bitrate=7048.6kbits/s speed=0.0122x    frame=  414 fps=0.4 q=31.0 size=   11545kB time=00:00:13.50 bitrate=7005.3kbits/s speed=0.0123x    frame=  416 fps=0.4 q=31.0 size=   11545kB time=00:00:13.58 bitrate=6962.5kbits/s speed=0.0122x    frame=  418 fps=0.4 q=31.0 size=   11545kB time=00:00:13.66 bitrate=6919.7kbits/s speed=0.0123x    frame=  421 fps=0.4 q=31.0 size=   11545kB time=00:00:13.79 bitrate=6857.0kbits/s speed=0.0123x    frame=  422 fps=0.4 q=31.0 size=   11545kB time=00:00:13.83 bitrate=6836.7kbits/s speed=0.0124x    frame=  424 fps=0.4 q=31.0 size=   11545kB time=00:00:13.91 bitrate=6795.4kbits/s speed=0.0124x    frame=  426 fps=0.4 q=30.0 size=   11545kB time=00:00:14.00 bitrate=6755.1kbits/s speed=0.0124x    frame=  427 fps=0.4 q=30.0 size=   11545kB time=00:00:14.04 bitrate=6734.9kbits/s speed=0.0124x    frame=  430 fps=0.4 q=30.0 size=   11545kB time=00:00:14.16 bitrate=6675.5kbits/s speed=0.0125x    frame=  432 fps=0.4 q=30.0 size=   11545kB time=00:00:14.25 bitrate=6636.6kbits/s speed=0.0125x    frame=  433 fps=0.4 q=30.0 size=   11545kB time=00:00:14.29 bitrate=6617.1kbits/s speed=0.0125x    frame=  434 fps=0.4 q=30.0 size=   11545kB time=00:00:14.33 bitrate=6598.2kbits/s speed=0.0125x    frame=  438 fps=0.4 q=30.0 size=   11545kB time=00:00:14.50 bitrate=6522.2kbits/s speed=0.0126x    frame=  439 fps=0.4 q=30.0 size=   11545kB time=00:00:14.54 bitrate=6503.4kbits/s speed=0.0126x    frame=  440 fps=0.4 q=30.0 size=   11545kB time=00:00:14.58 bitrate=6485.1kbits/s speed=0.0126x    frame=  444 fps=0.4 q=30.0 size=   11545kB time=00:00:14.75 bitrate=6411.7kbits/s speed=0.0126x    frame=  445 fps=0.4 q=30.0 size=   11545kB time=00:00:14.79 bitrate=6393.5kbits/s speed=0.0127x    frame=  446 fps=0.4 q=29.0 size=   11545kB time=00:00:14.83 bitrate=6375.8kbits/s speed=0.0127x    frame=  448 fps=0.4 q=29.0 size=   11545kB time=00:00:14.91 bitrate=6339.9kbits/s speed=0.0127x    frame=  449 fps=0.4 q=29.0 size=   11545kB time=00:00:14.95 bitrate=6322.5kbits/s speed=0.0127x    frame=  450 fps=0.4 q=29.0 size=   11545kB time=00:00:15.00 bitrate=6304.8kbits/s speed=0.0127x    frame=  452 fps=0.4 q=29.0 size=   11545kB time=00:00:15.08 bitrate=6270.1kbits/s speed=0.0127x    frame=  453 fps=0.4 q=29.0 size=   11545kB time=00:00:15.12 bitrate=6252.7kbits/s speed=0.0127x    frame=  454 fps=0.4 q=29.0 size=   11545kB time=00:00:15.16 bitrate=6235.4kbits/s speed=0.0128x    frame=  455 fps=0.4 q=29.0 size=   11545kB time=00:00:15.20 bitrate=6218.6kbits/s speed=0.0127x    frame=  456 fps=0.4 q=29.0 size=   11545kB time=00:00:15.25 bitrate=6201.5kbits/s speed=0.0127x    frame=  457 fps=0.4 q=29.0 size=   11545kB time=00:00:15.29 bitrate=6184.4kbits/s speed=0.0127x    frame=  458 fps=0.4 q=29.0 size=   15501kB time=00:00:15.33 bitrate=8281.0kbits/s speed=0.0127x    frame=  459 fps=0.4 q=29.0 size=   15501kB time=00:00:15.37 bitrate=8258.4kbits/s speed=0.0127x    frame=  460 fps=0.4 q=29.0 size=   15501kB time=00:00:15.41 bitrate=8235.9kbits/s speed=0.0127x    frame=  461 fps=0.4 q=29.0 size=   15501kB time=00:00:15.45 bitrate=8214.0kbits/s speed=0.0128x    frame=  463 fps=0.4 q=29.0 size=   15501kB time=00:00:15.54 bitrate=8169.6kbits/s speed=0.0127x    frame=  464 fps=0.4 q=29.0 size=   15501kB time=00:00:15.58 bitrate=8148.1kbits/s speed=0.0127x    frame=  465 fps=0.4 q=29.0 size=   15501kB time=00:00:15.62 bitrate=8126.2kbits/s speed=0.0128x    frame=  467 fps=0.4 q=29.0 size=   15501kB time=00:00:15.70 bitrate=8083.3kbits/s speed=0.0128x    frame=  468 fps=0.4 q=29.0 size=   15501kB time=00:00:15.75 bitrate=8061.7kbits/s speed=0.0128x    frame=  469 fps=0.4 q=29.0 size=   15501kB time=00:00:15.79 bitrate=8040.3kbits/s speed=0.0128x    frame=  470 fps=0.4 q=29.0 size=   15501kB time=00:00:15.83 bitrate=8019.5kbits/s speed=0.0128x    frame=  471 fps=0.4 q=29.0 size=   15501kB time=00:00:15.87 bitrate=7998.3kbits/s speed=0.0128x    frame=  472 fps=0.4 q=29.0 size=   15501kB time=00:00:15.91 bitrate=7977.2kbits/s speed=0.0128x    frame=  475 fps=0.4 q=29.0 size=   15501kB time=00:00:16.04 bitrate=7915.0kbits/s speed=0.0129x    frame=  476 fps=0.4 q=29.0 size=   15501kB time=00:00:16.08 bitrate=7894.8kbits/s speed=0.0128x    frame=  477 fps=0.4 q=29.0 size=   15501kB time=00:00:16.12 bitrate=7874.3kbits/s speed=0.0128x    frame=  478 fps=0.4 q=29.0 size=   15501kB time=00:00:16.16 bitrate=7853.8kbits/s speed=0.0128x    frame=  479 fps=0.4 q=29.0 size=   15501kB time=00:00:16.20 bitrate=7834.0kbits/s speed=0.0128x    frame=  480 fps=0.4 q=29.0 size=   15501kB time=00:00:16.25 bitrate=7813.7kbits/s speed=0.0128x    frame=  481 fps=0.4 q=29.0 size=   15501kB time=00:00:16.29 bitrate=7793.6kbits/s speed=0.0129x    frame=  482 fps=0.4 q=29.0 size=   15501kB time=00:00:16.33 bitrate=7774.0kbits/s speed=0.0129x    frame=  483 fps=0.4 q=29.0 size=   15501kB time=00:00:16.37 bitrate=7754.1kbits/s speed=0.0128x    frame=  484 fps=0.4 q=29.0 size=   15501kB time=00:00:16.41 bitrate=7734.2kbits/s speed=0.0128x    frame=  485 fps=0.4 q=29.0 size=   15501kB time=00:00:16.45 bitrate=7715.0kbits/s speed=0.0128x    frame=  487 fps=0.4 q=29.0 size=   15501kB time=00:00:16.54 bitrate=7675.8kbits/s speed=0.0128x    frame=  488 fps=0.4 q=29.0 size=   15501kB time=00:00:16.58 bitrate=7656.8kbits/s speed=0.0129x    frame=  489 fps=0.4 q=29.0 size=   15501kB time=00:00:16.62 bitrate=7637.5kbits/s speed=0.0129x    frame=  490 fps=0.4 q=29.0 size=   15501kB time=00:00:16.66 bitrate=7618.2kbits/s speed=0.0128x    frame=  491 fps=0.4 q=29.0 size=   15501kB time=00:00:16.70 bitrate=7599.5kbits/s speed=0.0128x    frame=  492 fps=0.4 q=29.0 size=   15501kB time=00:00:16.75 bitrate=7580.5kbits/s speed=0.0128x    frame=  493 fps=0.4 q=29.0 size=   15501kB time=00:00:16.79 bitrate=7561.5kbits/s speed=0.0128x    frame=  494 fps=0.4 q=29.0 size=   15501kB time=00:00:16.83 bitrate=7543.1kbits/s speed=0.0128x    frame=  495 fps=0.4 q=29.0 size=   15501kB time=00:00:16.87 bitrate=7524.3kbits/s speed=0.0128x    frame=  496 fps=0.4 q=29.0 size=   15501kB time=00:00:16.91 bitrate=7505.7kbits/s speed=0.0128x    frame=  497 fps=0.4 q=29.0 size=   15501kB time=00:00:16.95 bitrate=7487.5kbits/s speed=0.0128x    frame=  498 fps=0.4 q=29.0 size=   15501kB time=00:00:17.00 bitrate=7469.0kbits/s speed=0.0128x    frame=  499 fps=0.4 q=29.0 size=   15501kB time=00:00:17.04 bitrate=7450.6kbits/s speed=0.0128x    frame=  500 fps=0.4 q=29.0 size=   15501kB time=00:00:17.08 bitrate=7432.7kbits/s speed=0.0128x    frame=  500 fps=0.3 q=-1.0 Lsize=   21952kB time=00:00:20.70 bitrate=8683.6kbits/s speed=0.0134x    
video:21947kB audio:0kB subtitle:0kB other streams:0kB global headers:0kB muxing overhead: 0.021554%
bench: utime=5876.516s
bench: maxrss=4183440kB
[libx264 @ 0x27611c0] frame I:3     Avg QP:23.86  size:233653
[libx264 @ 0x27611c0] frame P:267   Avg QP:31.86  size: 58115
[libx264 @ 0x27611c0] frame B:230   Avg QP:31.50  size: 27197
[libx264 @ 0x27611c0] consecutive B-frames: 34.8% 13.6% 12.0% 16.0% 14.0%  9.6%  0.0%  0.0%  0.0%  0.0%  0.0%  0.0%  0.0%  0.0%  0.0%  0.0%  0.0%
[libx264 @ 0x27611c0] mb I  I16..4: 13.1% 74.6% 12.3%
[libx264 @ 0x27611c0] mb P  I16..4: 15.8% 13.2%  2.3%  P16..4: 30.0% 16.9%  2.4%  0.1%  0.0%    skip:19.3%
[libx264 @ 0x27611c0] mb B  I16..4:  1.2%  2.0%  0.1%  B16..8: 29.0%  6.9%  0.7%  direct: 1.0%  skip:59.0%  L0:41.8% L1:55.2% BI: 3.0%
[libx264 @ 0x27611c0] final ratefactor: 26.88
[libx264 @ 0x27611c0] 8x8 transform intra:44.6% inter:87.2%
[libx264 @ 0x27611c0] direct mvs  spatial:98.7% temporal:1.3%
[libx264 @ 0x27611c0] coded y,uvDC,uvAC intra: 16.2% 19.0% 1.5% inter: 4.8% 4.5% 0.1%
[libx264 @ 0x27611c0] i16 v,h,dc,p:  7% 15%  3% 75%
[libx264 @ 0x27611c0] i8 v,h,dc,ddl,ddr,vr,hd,vl,hu: 12%  8% 24%  6%  9%  8% 11%  9% 14%
[libx264 @ 0x27611c0] i4 v,h,dc,ddl,ddr,vr,hd,vl,hu: 17% 10% 58%  2%  3%  2%  3%  2%  3%
[libx264 @ 0x27611c0] i8c dc,h,v,p: 28% 39% 12% 21%
[libx264 @ 0x27611c0] Weighted P-Frames: Y:3.0% UV:2.6%
[libx264 @ 0x27611c0] ref P L0: 58.6% 19.5% 10.1%  3.3%  2.0%  1.5%  1.2%  0.7%  0.6%  0.5%  0.4%  0.4%  0.3%  0.3%  0.3%  0.2%
[libx264 @ 0x27611c0] ref B L0: 90.3%  4.8%  1.8%  0.8%  0.6%  0.4%  0.3%  0.2%  0.2%  0.1%  0.1%  0.1%  0.1%  0.1%  0.0%
[libx264 @ 0x27611c0] ref B L1: 98.7%  1.3%
[libx264 @ 0x27611c0] kb/s:8629.62
